<svg xmlns="http://www.w3.org/2000/svg" width="256" height="256" viewBox="0 0 256 256">
  <defs>
    <filter id="shadow" x="-20%" y="-20%" width="140%" height="140%">
      <feDropShadow dx="0" dy="3" stdDeviation="4" flood-opacity="0.18"/>
    </filter>
  </defs>
  <g filter="url(#shadow)">
    <circle cx="128" cy="128" r="110" fill="#ffffff"/>
    <circle cx="128" cy="128" r="103" fill="#fffaf5" stroke="#1f2937" stroke-width="8"/>
  </g>

  <!-- Pagoda/temple-inspired silhouette -->
  <g fill="#1f2937">
    <path d="M72 182 L184 182 L184 196 L72 196 Z"/>
    <path d="M95 182 L95 150 L112 150 L112 182 Z"/>
    <path d="M144 182 L144 150 L161 150 L161 182 Z"/>
    <path d="M121 182 L121 131 L135 131 L135 182 Z"/>

    <path d="M78 150
             Q128 134 178 150
             L170 158
             Q128 146 86 158
             Z"/>
    <path d="M90 130
             Q128 116 166 130
             L159 138
             Q128 128 97 138
             Z"/>
    <path d="M103 112
             Q128 100 153 112
             L147 119
             Q128 112 109 119
             Z"/>
    <rect x="124" y="88" width="8" height="24" rx="2"/>
    <circle cx="128" cy="82" r="7"/>
  </g>

  <!-- Small warm accent -->
  <circle cx="128" cy="214" r="12" fill="#d97706"/>
</svg>