<svg xmlns="http://www.w3.org/2000/svg" width="256" height="256" viewBox="0 0 256 256">
  <defs>
    <filter id="shadow" x="-20%" y="-20%" width="140%" height="140%">
      <feDropShadow dx="0" dy="3" stdDeviation="4" flood-opacity="0.18"/>
    </filter>
  </defs>
  <g filter="url(#shadow)">
    <circle cx="128" cy="128" r="110" fill="#ffffff"/>
    <circle cx="128" cy="128" r="103" fill="#f8fafc" stroke="#1f2937" stroke-width="8"/>
  </g>

  <!-- Kremlin/orthodox-inspired silhouette -->
  <g fill="#1f2937">
    <path d="M66 168 L190 168 L190 183 L66 183 Z"/>
    <path d="M82 168 L82 131 L100 131 L100 168 Z"/>
    <path d="M156 168 L156 131 L174 131 L174 168 Z"/>
    <path d="M114 168 L114 118 L142 118 L142 168 Z"/>
    <path d="M91 131
             C91 120, 97 112, 105 108
             C113 112, 119 120, 119 131
             Z"/>
    <path d="M151 131
             C151 120, 157 112, 165 108
             C173 112, 179 120, 179 131
             Z"/>
    <path d="M108 118
             C108 102, 118 91, 128 86
             C138 91, 148 102, 148 118
             Z"/>
    <rect x="125" y="79" width="6" height="12" rx="2"/>
    <rect x="120" y="83" width="16" height="4" rx="2"/>
  </g>

  <!-- Small red star accent -->
  <path d="M128 196
           l6.2 12.6 13.9 2-10.1 9.9 2.4 14-12.4-6.5-12.4 6.5 2.4-14-10.1-9.9 13.9-2z"
        fill="#b91c1c"/>
</svg>